<?xml version="1.0" encoding="UTF-8"?>
<svg xmlns="http://www.w3.org/2000/svg" xmlns:xlink="http://www.w3.org/1999/xlink" width="48px" height="48px" viewBox="0 0 48 48" version="1.1">
<g id="surface1">
<path style=" stroke:none;fill-rule:nonzero;fill:rgb(35.294119%,29.411766%,99.607843%);fill-opacity:1;" d="M 10.304688 -0.0117188 C 10.425781 -0.0117188 10.546875 -0.015625 10.671875 -0.015625 C 11.003906 -0.015625 11.339844 -0.015625 11.675781 -0.015625 C 12.035156 -0.015625 12.398438 -0.015625 12.761719 -0.015625 C 13.550781 -0.0195312 14.339844 -0.0195312 15.132812 -0.0195312 C 15.625 -0.0195312 16.121094 -0.0195312 16.613281 -0.0195312 C 17.984375 -0.0195312 19.355469 -0.0234375 20.722656 -0.0234375 C 20.8125 -0.0234375 20.898438 -0.0234375 20.988281 -0.0234375 C 21.078125 -0.0234375 21.164062 -0.0234375 21.257812 -0.0234375 C 21.433594 -0.0234375 21.613281 -0.0234375 21.789062 -0.0234375 C 21.921875 -0.0234375 21.921875 -0.0234375 22.058594 -0.0234375 C 23.484375 -0.0234375 24.914062 -0.0234375 26.34375 -0.0273438 C 27.8125 -0.0273438 29.28125 -0.03125 30.75 -0.03125 C 31.574219 -0.03125 32.394531 -0.03125 33.21875 -0.03125 C 33.921875 -0.0351562 34.625 -0.0351562 35.324219 -0.0351562 C 35.683594 -0.0351562 36.039062 -0.0351562 36.398438 -0.0351562 C 39.476562 -0.046875 42.332031 0.269531 44.8125 2.25 C 44.871094 2.292969 44.929688 2.335938 44.988281 2.378906 C 46.867188 3.835938 47.609375 6.429688 47.957031 8.664062 C 48.023438 9.210938 48.011719 9.753906 48.011719 10.304688 C 48.011719 10.484375 48.011719 10.484375 48.015625 10.671875 C 48.015625 11.003906 48.015625 11.339844 48.015625 11.675781 C 48.015625 12.035156 48.015625 12.398438 48.015625 12.761719 C 48.019531 13.550781 48.019531 14.339844 48.019531 15.132812 C 48.019531 15.625 48.019531 16.121094 48.019531 16.613281 C 48.019531 17.984375 48.023438 19.355469 48.023438 20.722656 C 48.023438 20.8125 48.023438 20.898438 48.023438 20.988281 C 48.023438 21.078125 48.023438 21.164062 48.023438 21.257812 C 48.023438 21.433594 48.023438 21.613281 48.023438 21.789062 C 48.023438 21.878906 48.023438 21.964844 48.023438 22.058594 C 48.023438 23.484375 48.023438 24.914062 48.027344 26.34375 C 48.027344 27.8125 48.03125 29.28125 48.03125 30.75 C 48.03125 31.574219 48.03125 32.394531 48.03125 33.21875 C 48.035156 33.921875 48.035156 34.625 48.035156 35.324219 C 48.035156 35.683594 48.035156 36.039062 48.035156 36.398438 C 48.046875 39.476562 47.730469 42.332031 45.75 44.8125 C 45.707031 44.871094 45.664062 44.929688 45.621094 44.988281 C 44.164062 46.867188 41.570312 47.609375 39.335938 47.957031 C 38.789062 48.023438 38.246094 48.011719 37.695312 48.011719 C 37.574219 48.011719 37.453125 48.015625 37.328125 48.015625 C 36.996094 48.015625 36.660156 48.015625 36.324219 48.015625 C 35.964844 48.015625 35.601562 48.015625 35.238281 48.015625 C 34.449219 48.019531 33.660156 48.019531 32.867188 48.019531 C 32.375 48.019531 31.878906 48.019531 31.386719 48.019531 C 30.015625 48.019531 28.644531 48.023438 27.277344 48.023438 C 27.1875 48.023438 27.101562 48.023438 27.011719 48.023438 C 26.921875 48.023438 26.835938 48.023438 26.742188 48.023438 C 26.566406 48.023438 26.386719 48.023438 26.210938 48.023438 C 26.078125 48.023438 26.078125 48.023438 25.941406 48.023438 C 24.515625 48.023438 23.085938 48.023438 21.65625 48.027344 C 20.1875 48.027344 18.71875 48.03125 17.25 48.03125 C 16.425781 48.03125 15.605469 48.03125 14.78125 48.03125 C 14.078125 48.035156 13.375 48.035156 12.675781 48.035156 C 12.316406 48.035156 11.960938 48.035156 11.601562 48.035156 C 8.523438 48.046875 5.667969 47.730469 3.1875 45.75 C 3.128906 45.707031 3.070312 45.664062 3.011719 45.621094 C 1.132812 44.164062 0.390625 41.570312 0.0429688 39.335938 C -0.0234375 38.789062 -0.0117188 38.246094 -0.0117188 37.695312 C -0.0117188 37.515625 -0.0117188 37.515625 -0.015625 37.328125 C -0.015625 36.996094 -0.015625 36.660156 -0.015625 36.324219 C -0.015625 35.964844 -0.015625 35.601562 -0.015625 35.238281 C -0.0195312 34.449219 -0.0195312 33.660156 -0.0195312 32.867188 C -0.0195312 32.375 -0.0195312 31.878906 -0.0195312 31.386719 C -0.0195312 30.015625 -0.0234375 28.644531 -0.0234375 27.277344 C -0.0234375 27.1875 -0.0234375 27.101562 -0.0234375 27.011719 C -0.0234375 26.921875 -0.0234375 26.835938 -0.0234375 26.742188 C -0.0234375 26.566406 -0.0234375 26.386719 -0.0234375 26.210938 C -0.0234375 26.121094 -0.0234375 26.035156 -0.0234375 25.941406 C -0.0234375 24.515625 -0.0234375 23.085938 -0.0273438 21.65625 C -0.0273438 20.1875 -0.03125 18.71875 -0.03125 17.25 C -0.03125 16.425781 -0.03125 15.605469 -0.03125 14.78125 C -0.0351562 14.078125 -0.0351562 13.375 -0.0351562 12.675781 C -0.0351562 12.316406 -0.0351562 11.960938 -0.0351562 11.601562 C -0.046875 8.523438 0.269531 5.667969 2.25 3.1875 C 2.292969 3.128906 2.335938 3.070312 2.378906 3.011719 C 3.835938 1.132812 6.429688 0.390625 8.664062 0.0429688 C 9.210938 -0.0234375 9.753906 -0.0117188 10.304688 -0.0117188 Z M 10.304688 -0.0117188 "/>
<path style=" stroke:none;fill-rule:nonzero;fill:rgb(99.215686%,99.215686%,99.607843%);fill-opacity:1;" d="M 20.5625 5.871094 C 20.816406 5.871094 21.070312 5.871094 21.324219 5.871094 C 21.855469 5.871094 22.386719 5.871094 22.914062 5.875 C 23.523438 5.875 24.128906 5.878906 24.738281 5.875 C 25.328125 5.875 25.917969 5.875 26.507812 5.878906 C 26.757812 5.878906 27.007812 5.878906 27.253906 5.878906 C 30.6875 5.878906 30.6875 5.878906 32.210938 6.339844 C 32.289062 6.363281 32.371094 6.386719 32.457031 6.414062 C 35.398438 7.324219 37.855469 9.367188 39.296875 12.082031 C 39.550781 12.59375 39.742188 13.121094 39.925781 13.65625 C 39.953125 13.738281 39.980469 13.816406 40.007812 13.898438 C 40.40625 15.140625 40.433594 16.339844 40.425781 17.632812 C 40.421875 17.925781 40.421875 18.222656 40.421875 18.515625 C 40.421875 18.703125 40.421875 18.890625 40.421875 19.078125 C 40.421875 19.164062 40.421875 19.253906 40.421875 19.34375 C 40.421875 19.425781 40.421875 19.503906 40.417969 19.589844 C 40.417969 19.660156 40.417969 19.730469 40.417969 19.804688 C 40.40625 19.96875 40.40625 19.96875 40.3125 20.0625 C 40.097656 20.070312 39.882812 20.066406 39.664062 20.066406 C 39.523438 20.0625 39.386719 20.0625 39.246094 20.0625 C 39.167969 20.058594 39.09375 20.058594 39.015625 20.058594 C 38.535156 20.054688 38.054688 20.054688 37.574219 20.054688 C 37.15625 20.050781 36.734375 20.050781 36.3125 20.042969 C 35.902344 20.039062 35.496094 20.035156 35.085938 20.039062 C 34.933594 20.039062 34.777344 20.035156 34.625 20.03125 C 33.878906 20.015625 33.277344 20.011719 32.691406 20.515625 C 32.46875 20.730469 32.265625 20.953125 32.0625 21.1875 C 31.933594 21.316406 31.804688 21.445312 31.671875 21.574219 C 31.558594 21.6875 31.449219 21.800781 31.335938 21.914062 C 30.925781 22.328125 30.511719 22.734375 30.066406 23.109375 C 29.78125 23.359375 29.515625 23.632812 29.25 23.90625 C 29.375 24.183594 29.503906 24.367188 29.730469 24.570312 C 29.789062 24.625 29.847656 24.679688 29.90625 24.734375 C 29.96875 24.789062 30.03125 24.84375 30.09375 24.902344 C 30.222656 25.019531 30.351562 25.136719 30.476562 25.253906 C 30.539062 25.3125 30.601562 25.371094 30.667969 25.429688 C 30.902344 25.648438 31.128906 25.875 31.351562 26.101562 C 31.671875 26.425781 31.992188 26.734375 32.34375 27.019531 C 32.53125 27.1875 32.53125 27.1875 32.671875 27.359375 C 33.011719 27.738281 33.304688 27.882812 33.816406 27.917969 C 34.179688 27.929688 34.542969 27.929688 34.910156 27.925781 C 35.066406 27.925781 35.226562 27.925781 35.386719 27.929688 C 35.800781 27.929688 36.214844 27.929688 36.628906 27.925781 C 37.136719 27.925781 37.640625 27.925781 38.148438 27.929688 C 38.542969 27.929688 38.933594 27.929688 39.328125 27.929688 C 39.402344 27.929688 39.472656 27.929688 39.546875 27.929688 C 39.679688 27.929688 39.816406 27.929688 39.949219 27.925781 C 40.101562 27.925781 40.253906 27.933594 40.40625 27.9375 C 40.570312 28.101562 40.511719 28.339844 40.511719 28.5625 C 40.511719 28.671875 40.511719 28.78125 40.511719 28.898438 C 40.511719 29.484375 40.507812 30.070312 40.5 30.65625 C 40.5 30.734375 40.5 30.8125 40.496094 30.894531 C 40.460938 33.695312 39.28125 36.621094 37.3125 38.625 C 34.351562 41.476562 30.589844 42.140625 26.628906 42.132812 C 26.390625 42.132812 26.152344 42.132812 25.914062 42.132812 C 25.417969 42.132812 24.921875 42.132812 24.425781 42.128906 C 23.855469 42.128906 23.285156 42.128906 22.71875 42.132812 C 22.164062 42.132812 21.609375 42.132812 21.054688 42.132812 C 20.820312 42.132812 20.589844 42.132812 20.355469 42.132812 C 18.660156 42.136719 16.941406 42.101562 15.320312 41.523438 C 15.242188 41.496094 15.160156 41.46875 15.078125 41.441406 C 12.136719 40.378906 9.769531 38.253906 8.421875 35.425781 C 7.628906 33.65625 7.484375 31.789062 7.484375 29.875 C 7.484375 29.722656 7.484375 29.570312 7.484375 29.417969 C 7.480469 29.011719 7.480469 28.601562 7.480469 28.191406 C 7.480469 27.933594 7.480469 27.675781 7.480469 27.417969 C 7.480469 26.613281 7.476562 25.804688 7.476562 25 C 7.476562 24.074219 7.476562 23.144531 7.472656 22.21875 C 7.472656 21.5 7.46875 20.78125 7.46875 20.0625 C 7.46875 19.632812 7.46875 19.203125 7.46875 18.777344 C 7.464844 18.375 7.464844 17.96875 7.464844 17.566406 C 7.464844 17.417969 7.464844 17.273438 7.464844 17.125 C 7.457031 15.871094 7.589844 14.640625 8.027344 13.453125 C 8.050781 13.386719 8.074219 13.324219 8.097656 13.257812 C 9.167969 10.433594 11.398438 8.152344 14.125 6.910156 C 16.242188 5.976562 18.273438 5.863281 20.5625 5.871094 Z M 20.5625 5.871094 "/>
<path style=" stroke:none;fill-rule:nonzero;fill:rgb(35.294119%,29.411766%,99.607843%);fill-opacity:1;" d="M 17.0625 14.4375 C 18.625 14.433594 20.1875 14.429688 21.75 14.429688 C 22.476562 14.425781 23.199219 14.425781 23.925781 14.421875 C 24.558594 14.421875 25.191406 14.421875 25.824219 14.417969 C 26.15625 14.417969 26.492188 14.417969 26.828125 14.417969 C 27.203125 14.417969 27.574219 14.417969 27.949219 14.417969 C 28.058594 14.414062 28.171875 14.414062 28.285156 14.414062 C 29.21875 14.417969 30 14.46875 30.707031 15.136719 C 31.234375 15.695312 31.511719 16.34375 31.554688 17.109375 C 31.484375 18.386719 30.503906 19.15625 29.625 19.96875 C 29.445312 20.128906 29.265625 20.285156 29.082031 20.4375 C 28.703125 20.78125 28.347656 21.152344 27.984375 21.515625 C 27.628906 21.875 27.265625 22.222656 26.878906 22.546875 C 26.644531 22.753906 26.429688 22.976562 26.214844 23.195312 C 26.0625 23.34375 26.0625 23.34375 25.792969 23.546875 C 25.589844 23.699219 25.589844 23.699219 25.507812 23.890625 C 25.476562 24.113281 25.476562 24.113281 25.667969 24.3125 C 25.75 24.390625 25.832031 24.464844 25.914062 24.546875 C 26.003906 24.628906 26.089844 24.710938 26.179688 24.796875 C 26.445312 25.039062 26.71875 25.277344 26.992188 25.515625 C 27.308594 25.796875 27.601562 26.097656 27.898438 26.398438 C 28.09375 26.59375 28.292969 26.773438 28.5 26.953125 C 28.882812 27.28125 29.230469 27.636719 29.582031 27.992188 C 29.785156 28.191406 29.988281 28.371094 30.203125 28.554688 C 30.8125 29.074219 31.429688 29.773438 31.542969 30.589844 C 31.550781 31.453125 31.433594 32.058594 30.871094 32.722656 C 30.066406 33.503906 29.089844 33.617188 28.015625 33.605469 C 27.894531 33.605469 27.777344 33.605469 27.652344 33.605469 C 27.332031 33.605469 27.007812 33.601562 26.683594 33.601562 C 26.34375 33.597656 26.007812 33.597656 25.667969 33.597656 C 25.027344 33.597656 24.386719 33.59375 23.746094 33.589844 C 23.019531 33.585938 22.289062 33.582031 21.558594 33.582031 C 20.058594 33.578125 18.5625 33.570312 17.0625 33.5625 C 16.929688 33.246094 16.839844 32.964844 16.796875 32.625 C 16.78125 32.535156 16.769531 32.445312 16.757812 32.355469 C 16.746094 32.265625 16.734375 32.175781 16.722656 32.078125 C 16.710938 31.988281 16.699219 31.898438 16.683594 31.808594 C 16.613281 31.285156 16.59375 30.816406 16.59375 30.28125 C 19.996094 30.28125 23.398438 30.28125 26.90625 30.28125 C 26.460938 29.613281 25.949219 29.09375 25.34375 28.578125 C 24.96875 28.257812 24.625 27.910156 24.28125 27.5625 C 23.882812 27.160156 23.484375 26.773438 23.054688 26.410156 C 22.746094 26.132812 22.457031 25.835938 22.167969 25.539062 C 21.90625 25.28125 21.636719 25.042969 21.359375 24.808594 C 21.101562 24.582031 20.863281 24.339844 20.625 24.09375 C 20.757812 23.648438 21.015625 23.402344 21.359375 23.101562 C 21.46875 23.003906 21.582031 22.902344 21.691406 22.800781 C 21.75 22.75 21.804688 22.699219 21.863281 22.648438 C 22.113281 22.425781 22.363281 22.199219 22.609375 21.972656 C 22.683594 21.90625 22.683594 21.90625 22.757812 21.835938 C 23.300781 21.335938 23.816406 20.8125 24.332031 20.289062 C 24.714844 19.902344 25.101562 19.539062 25.511719 19.1875 C 25.78125 18.949219 26.035156 18.695312 26.289062 18.4375 C 26.339844 18.390625 26.390625 18.339844 26.441406 18.289062 C 26.707031 18.03125 26.707031 18.03125 26.90625 17.71875 C 23.503906 17.71875 20.101562 17.71875 16.59375 17.71875 C 16.59375 16.664062 16.59375 16.664062 16.648438 16.296875 C 16.660156 16.214844 16.671875 16.136719 16.683594 16.054688 C 16.695312 15.976562 16.710938 15.894531 16.722656 15.8125 C 16.734375 15.734375 16.746094 15.652344 16.757812 15.566406 C 16.820312 15.164062 16.90625 14.820312 17.0625 14.4375 Z M 17.0625 14.4375 "/>
<path style=" stroke:none;fill-rule:nonzero;fill:rgb(35.686275%,29.803923%,99.607843%);fill-opacity:1;" d="M 17.4375 8.8125 C 17.289062 9.175781 17.054688 9.40625 16.78125 9.6875 C 15.457031 11.09375 14.53125 12.847656 14.0625 14.71875 C 14.046875 14.78125 14.03125 14.839844 14.011719 14.90625 C 13.832031 15.671875 13.847656 16.441406 13.847656 17.226562 C 13.847656 17.382812 13.847656 17.539062 13.847656 17.695312 C 13.847656 18.121094 13.847656 18.546875 13.847656 18.972656 C 13.847656 19.328125 13.847656 19.683594 13.847656 20.039062 C 13.84375 20.878906 13.84375 21.722656 13.84375 22.5625 C 13.847656 23.429688 13.84375 24.292969 13.84375 25.15625 C 13.839844 25.902344 13.839844 26.644531 13.839844 27.390625 C 13.839844 27.835938 13.839844 28.277344 13.839844 28.722656 C 13.839844 29.140625 13.839844 29.558594 13.839844 29.976562 C 13.839844 30.128906 13.839844 30.28125 13.839844 30.429688 C 13.832031 31.796875 13.945312 33.1875 14.453125 34.46875 C 14.484375 34.542969 14.511719 34.617188 14.539062 34.691406 C 15.121094 36.15625 15.90625 37.464844 17.085938 38.527344 C 17.277344 38.75 17.3125 38.902344 17.34375 39.1875 C 16.800781 39.140625 16.371094 39.03125 15.878906 38.804688 C 15.8125 38.777344 15.75 38.75 15.683594 38.71875 C 13.390625 37.660156 11.789062 36.175781 10.796875 33.820312 C 10.191406 32.0625 10.269531 30.234375 10.273438 28.398438 C 10.277344 27.996094 10.273438 27.589844 10.273438 27.183594 C 10.273438 26.507812 10.273438 25.828125 10.277344 25.148438 C 10.277344 24.367188 10.277344 23.585938 10.273438 22.804688 C 10.273438 22.128906 10.273438 21.457031 10.273438 20.78125 C 10.273438 20.378906 10.273438 19.976562 10.273438 19.578125 C 10.265625 15.269531 10.265625 15.269531 10.96875 13.78125 C 11.046875 13.617188 11.046875 13.617188 11.125 13.449219 C 12.183594 11.28125 14.070312 9.769531 16.335938 8.96875 C 16.71875 8.839844 17.03125 8.796875 17.4375 8.8125 Z M 17.4375 8.8125 "/>
<path style=" stroke:none;fill-rule:nonzero;fill:rgb(35.686275%,29.803923%,99.607843%);fill-opacity:1;" d="M 34.539062 30.363281 C 34.679688 30.363281 34.824219 30.363281 34.964844 30.367188 C 35.039062 30.367188 35.117188 30.367188 35.191406 30.367188 C 35.433594 30.367188 35.671875 30.367188 35.914062 30.367188 C 36.074219 30.371094 36.238281 30.371094 36.398438 30.371094 C 36.796875 30.371094 37.195312 30.375 37.59375 30.375 C 37.632812 33.011719 36.773438 35.152344 34.949219 37.058594 C 32.78125 39.125 29.664062 39.410156 26.824219 39.410156 C 26.53125 39.410156 26.238281 39.414062 25.941406 39.417969 C 23.136719 39.433594 20.90625 38.492188 18.863281 36.59375 C 18.65625 36.375 18.65625 36.375 18.5625 36.09375 C 18.613281 36.09375 18.664062 36.09375 18.71875 36.09375 C 19.972656 36.085938 21.222656 36.082031 22.476562 36.070312 C 23.082031 36.066406 23.6875 36.0625 24.296875 36.0625 C 24.882812 36.058594 25.46875 36.054688 26.054688 36.050781 C 26.277344 36.046875 26.496094 36.046875 26.71875 36.046875 C 28.671875 36.042969 30.628906 36.003906 32.25 34.78125 C 32.328125 34.726562 32.402344 34.667969 32.480469 34.613281 C 33.636719 33.609375 33.960938 32.265625 34.089844 30.8125 C 34.136719 30.378906 34.136719 30.378906 34.539062 30.363281 Z M 34.539062 30.363281 "/>
<path style=" stroke:none;fill-rule:nonzero;fill:rgb(36.078432%,30.19608%,99.607843%);fill-opacity:1;" d="M 34.820312 10.828125 C 34.964844 10.96875 35.109375 11.105469 35.25 11.25 C 35.316406 11.3125 35.378906 11.378906 35.449219 11.445312 C 37.015625 13.085938 37.59375 15.324219 37.59375 17.53125 C 36.480469 17.53125 35.367188 17.53125 34.21875 17.53125 C 34.15625 17.066406 34.09375 16.601562 34.03125 16.125 C 33.648438 14.601562 32.832031 13.433594 31.5 12.617188 C 30.78125 12.238281 29.976562 11.992188 29.160156 11.984375 C 29.070312 11.984375 28.976562 11.984375 28.882812 11.984375 C 28.785156 11.984375 28.6875 11.984375 28.585938 11.980469 C 28.480469 11.980469 28.375 11.980469 28.265625 11.980469 C 28.039062 11.976562 27.8125 11.976562 27.585938 11.976562 C 27.226562 11.972656 26.867188 11.972656 26.503906 11.96875 C 25.675781 11.960938 24.851562 11.957031 24.023438 11.953125 C 23.203125 11.945312 22.382812 11.941406 21.5625 11.933594 C 21.207031 11.933594 20.851562 11.929688 20.496094 11.929688 C 20.28125 11.925781 20.0625 11.925781 19.847656 11.925781 C 19.746094 11.921875 19.648438 11.921875 19.546875 11.921875 C 19.457031 11.921875 19.367188 11.921875 19.273438 11.921875 C 19.195312 11.921875 19.113281 11.917969 19.035156 11.917969 C 18.84375 11.90625 18.84375 11.90625 18.65625 11.8125 C 19.136719 10.644531 20.851562 9.730469 21.960938 9.242188 C 25.792969 7.722656 31.632812 8.046875 34.820312 10.828125 Z M 34.820312 10.828125 "/>
<path style=" stroke:none;fill-rule:nonzero;fill:rgb(41.960785%,36.862746%,99.607843%);fill-opacity:1;" d="M 16.03125 38.625 C 16.277344 38.71875 16.527344 38.8125 16.78125 38.90625 C 16.78125 38.96875 16.78125 39.03125 16.78125 39.09375 C 16.472656 39 16.164062 38.90625 15.84375 38.8125 C 15.90625 38.75 15.96875 38.6875 16.03125 38.625 Z M 16.03125 38.625 "/>
</g>
</svg>
