<?xml version="1.0" encoding="UTF-8"?>
<svg version="1.1" xmlns="http://www.w3.org/2000/svg" width="41" height="41">
<path d="M0 0 C2.3125 1.6875 2.3125 1.6875 4.3125 4.6875 C4.57010279 7.38202521 4.40150053 9.97298375 4.3125 12.6875 C2.0025 13.0175 -0.3075 13.3475 -2.6875 13.6875 C-2.6875 14.6775 -2.6875 15.6675 -2.6875 16.6875 C-0.3775 17.0175 1.9325 17.3475 4.3125 17.6875 C4.74218661 21.98436609 4.72619759 24.69964548 2 28.0625 C-2.64165785 32.59621232 -7.32307465 31.9583669 -13.5078125 31.91015625 C-17.22705529 31.64971787 -19.66727722 30.89144636 -22.6875 28.6875 C-25.58341497 24.34362755 -25.09391314 20.42456174 -25.125 15.3125 C-25.15787109 14.36632813 -25.19074219 13.42015625 -25.22460938 12.4453125 C-25.26102453 7.73120542 -25.256961 5.44234479 -22.34765625 1.5859375 C-16.09089067 -2.87924322 -7.0374634 -2.50485985 0 0 Z M-10.6875 2.6875 C-10.6875 3.0175 -10.6875 3.3475 -10.6875 3.6875 C-8.7075 3.6875 -6.7275 3.6875 -4.6875 3.6875 C-4.6875 3.3575 -4.6875 3.0275 -4.6875 2.6875 C-6.6675 2.6875 -8.6475 2.6875 -10.6875 2.6875 Z M-4.6875 3.6875 C-3.3675 4.6775 -2.0475 5.6675 -0.6875 6.6875 C-1.0175 5.6975 -1.3475 4.7075 -1.6875 3.6875 C-2.6775 3.6875 -3.6675 3.6875 -4.6875 3.6875 Z M-20.6875 5.6875 C-20.6875 11.9575 -20.6875 18.2275 -20.6875 24.6875 C-20.3575 24.6875 -20.0275 24.6875 -19.6875 24.6875 C-19.6875 18.4175 -19.6875 12.1475 -19.6875 5.6875 C-20.0175 5.6875 -20.3475 5.6875 -20.6875 5.6875 Z M-0.6875 6.6875 C0.3125 8.6875 0.3125 8.6875 0.3125 8.6875 Z M-15.6875 7.6875 C-15.6875 8.0175 -15.6875 8.3475 -15.6875 8.6875 C-12.7175 8.6875 -9.7475 8.6875 -6.6875 8.6875 C-8.1725 11.1625 -8.1725 11.1625 -9.6875 13.6875 C-7.6712767 12.97186734 -7.6712767 12.97186734 -5.6875 11.6875 C-5.3575 10.3675 -5.0275 9.0475 -4.6875 7.6875 C-8.3175 7.6875 -11.9475 7.6875 -15.6875 7.6875 Z M-10.6875 13.6875 C-10.6875 16.6875 -10.6875 16.6875 -10.6875 16.6875 Z M-9.6875 16.6875 C-8.6975 18.3375 -7.7075 19.9875 -6.6875 21.6875 C-9.6575 21.6875 -12.6275 21.6875 -15.6875 21.6875 C-15.6875 22.0175 -15.6875 22.3475 -15.6875 22.6875 C-12.0575 22.6875 -8.4275 22.6875 -4.6875 22.6875 C-5.19730961 18.65371634 -5.19730961 18.65371634 -7.75 17.4375 C-8.389375 17.19 -9.02875 16.9425 -9.6875 16.6875 Z M-0.6875 21.6875 C0.3125 23.6875 0.3125 23.6875 0.3125 23.6875 Z M-1.6875 23.6875 C-2.6775 24.6775 -3.6675 25.6675 -4.6875 26.6875 C-3.3675 26.3575 -2.0475 26.0275 -0.6875 25.6875 C-1.0175 25.0275 -1.3475 24.3675 -1.6875 23.6875 Z M-10.6875 26.6875 C-10.6875 27.0175 -10.6875 27.3475 -10.6875 27.6875 C-8.7075 27.6875 -6.7275 27.6875 -4.6875 27.6875 C-4.6875 27.3575 -4.6875 27.0275 -4.6875 26.6875 C-6.6675 26.6875 -8.6475 26.6875 -10.6875 26.6875 Z " fill="#FCFCFC" transform="translate(30.6875,5.3125)"/>
</svg>
